#!OML:ASF E:\Style6\Style6.ASF
:FULLY-SPECIFIED
:DEGREES
2585
root 0.299813 18.2885 1.10909 11.4618 -1.53512 -3.22796
lowerback -7.54189 -0.121627 3.31443
upperback -4.00351 -0.403857 2.89894
thorax 0.0884612 -0.223608 1.09624
lowerneck -9.03384 -0.216344 2.833
upperneck 10.2873 -0.252922 -3.66475
head 4.55183 -0.236881 -1.60923
rclavicle 8.31945e-015 -4.45278e-014
rhumerus -29.985 1.14842 -80.8931
rradius 48.1119
rwrist 33.9755
rhand -22.3401 26.8132
rfingers 7.12502
rthumb 4.08038 -3.12745
lclavicle 8.31945e-015 -4.45278e-014
lhumerus -26.1899 -5.11951 89.3822
lradius 39.8588
lwrist -6.83798
lhand -6.00284 9.54167
lfingers 7.12502
lthumb 19.8296 38.5501
rfemur 0 0 0
rtibia 0
rfoot 0 0
rtoes 0
lfemur -12.5652 -26.0195 -12.839
ltibia 16.7325
lfoot -8.12248 28.4566
ltoes -8.0397
2586
root 0.300889 18.2893 1.10672 11.453 -1.51343 -3.25254
lowerback -7.52083 -0.168853 3.32978
upperback -3.96759 -0.468465 2.93771
thorax 0.113787 -0.255377 1.12276
lowerneck -9.06498 -0.179613 2.86161
upperneck 10.2816 -0.200154 -3.73306
head 4.55691 -0.214244 -1.63174
rclavicle 7.32223e-015 3.18055e-015
rhumerus -30.0459 -1.1372 -80.4277
rradius 45.7728
rwrist 33.1792
rhand -21.5056 25.5203
rfingers 7.12502
rthumb 4.8862 -4.40331
lclavicle 7.32223e-015 3.18055e-015
lhumerus -26.1813 -2.74544 89.0465
lradius 37.2537
lwrist -8.1559
lhand -5.92489 9.69825
lfingers 7.12502
lthumb 19.9046 38.6989
rfemur 0 0 0
rtibia 0
rfoot 0 0
rtoes 0
lfemur -12.5387 -26.0955 -12.8013
ltibia 16.6761
lfoot -8.20973 28.4774
ltoes -7.77428
2587
root 0.301171 18.2895 1.10396 11.5018 -1.5217 -3.25655
lowerback -7.49533 -0.217997 3.29735
upperback -4.00973 -0.52903 2.98771
thorax 0.0566307 -0.285585 1.1884
lowerneck -8.98782 -0.145722 2.83647
upperneck 10.2857 -0.144288 -3.77509
head 4.54715 -0.189656 -1.63673
rclavicle -1.31493e-014 1.11319e-014
rhumerus -30.2375 -3.4388 -79.8634
rradius 43.499
rwrist 32.5245
rhand -20.9506 24.316
rfingers 7.12502
rthumb 5.42204 -5.59462
lclavicle -1.31493e-014 1.11319e-014
lhumerus -26.3321 -0.392142 88.6651
lradius 34.6923
lwrist -9.312
lhand -6.35394 9.60106
lfingers 7.12502
lthumb 19.4921 38.644
rfemur 0 0 0
rtibia 0
rfoot 0 0
rtoes 0
lfemur -12.5996 -26.024 -12.771
ltibia 16.652
lfoot -8.17762 28.4194
ltoes -7.68694
2588
root 0.302025 18.2897 1.10043 11.5392 -1.58117 -3.16298
lowerback -7.44289 -0.238382 3.20569
upperback -4.04823 -0.545802 2.97918
thorax -0.0111563 -0.293591 1.23015
lowerneck -8.92362 -0.138693 2.82029
upperneck 10.2951 -0.127608 -3.80416
head 4.53985 -0.183307 -1.64181
rclavicle -1.12385e-014 3.18055e-014
rhumerus -30.4955 -6.0344 -79.1204
rradius 41.2581
rwrist 32.2913
rhand -20.3471 23.2299
rfingers 7.12502
rthumb 6.00476 -6.66505
lclavicle -1.12385e-014 3.18055e-014
lhumerus -26.4707 1.92057 88.1853
lradius 32.1651
lwrist -10.5811
lhand -6.72658 9.74387
lfingers 7.12502
lthumb 19.1338 38.8227
rfemur 0 0 0
rtibia 0
rfoot 0 0
rtoes 0
lfemur -12.6688 -25.9968 -12.8626
ltibia 16.6719
lfoot -8.04107 28.455
ltoes -8.05025
2589
root 0.303314 18.29 1.09743 11.5473 -1.6239 -3.17219
lowerback -7.36402 -0.242846 3.245
upperback -4.07503 -0.548932 2.99051
thorax -0.0828563 -0.296478 1.22022
lowerneck -8.84887 -0.127375 2.77678
upperneck 10.2966 -0.10432 -3.80833
head 4.52866 -0.173142 -1.6342
rclavicle 2.23361e-015 -2.70347e-014
rhumerus -30.8007 -8.73947 -78.1769
rradius 39.075
rwrist 32.191
rhand -19.3437 22.1758
rfingers 7.12502
rthumb 6.97336 -7.68938
lclavicle 2.23361e-015 -2.70347e-014
lhumerus -26.687 4.41184 87.5413
lradius 29.8808
lwrist -12.3764
lhand -6.80052 10.1281
lfingers 7.12502
lthumb 19.0627 39.214
rfemur 0 0 0
rtibia 0
rfoot 0 0
rtoes 0
lfemur -12.7021 -25.9832 -12.8543
ltibia 16.7089
lfoot -8.01192 28.5024
ltoes -8.33359
2590
root 0.302602 18.2893 1.09566 11.5483 -1.64904 -3.23703
lowerback -7.29273 -0.259088 3.30209
upperback -4.09448 -0.569672 3.03191
thorax -0.142809 -0.30804 1.2301
lowerneck -8.84225 -0.101023 2.71485
upperneck 10.3575 -0.0621758 -3.77943
head 4.54779 -0.153248 -1.6128
rclavicle 1.51566e-014 -3.4191e-014
rhumerus -31.1606 -11.5047 -77.0834
rradius 37.0782
rwrist 32.3495
rhand -18.3344 20.6707
rfingers 7.12502
rthumb 7.94756 -9.15992
lclavicle 1.51566e-014 -3.4191e-014
lhumerus -26.9804 6.77044 86.8207
lradius 27.7968
lwrist -14.1786
lhand -6.90459 10.5825
lfingers 7.12502
lthumb 18.9626 39.6782
rfemur 0 0 0
rtibia 0
rfoot 0 0
rtoes 0
lfemur -12.7024 -25.9444 -12.7863
ltibia 16.7272
lfoot -8.09815 28.4839
ltoes -8.12758
2591
root 0.300724 18.2895 1.09367 11.5931 -1.67335 -3.29629
lowerback -7.29947 -0.274722 3.31959
upperback -4.09605 -0.592269 3.07929
thorax -0.14056 -0.319179 1.26762
lowerneck -8.8704 -0.0770979 2.69037
upperneck 10.4017 -0.0249893 -3.7888
head 4.56735 -0.136912 -1.6097
rclavicle -1.35433e-014 3.97569e-014
rhumerus -31.5152 -14.581 -75.7888
rradius 35.1983
rwrist 32.7398
rhand -17.0597 19.0873
rfingers 7.12502
rthumb 9.17773 -10.693
lclavicle -1.35433e-014 3.97569e-014
lhumerus -27.2005 9.44376 85.9445
lradius 25.6445
lwrist -16.4192
lhand -7.1274 11.0937
lfingers 7.12502
lthumb 18.7483 40.2103
rfemur 0 0 0
rtibia 0
rfoot 0 0
rtoes 0
lfemur -12.7493 -25.9759 -12.6857
ltibia 16.7159
lfoot -8.12733 28.5433
ltoes -7.98261
2592
root 0.301845 18.2897 1.09159 11.6397 -1.73054 -3.24383
lowerback -7.30684 -0.268371 3.27089
upperback -4.09385 -0.581394 3.07624
thorax -0.133581 -0.312957 1.29243
lowerneck -8.90396 -0.0770134 2.71983
upperneck 10.4303 -0.0200023 -3.86411
head 4.58182 -0.138286 -1.63781
rclavicle 1.25382e-014 -1.90833e-014
rhumerus -31.9774 -17.9595 -74.2794
rradius 33.359
rwrist 33.3068
rhand -15.5692 17.814
rfingers 7.12502
rthumb 10.6157 -11.8979
lclavicle 1.25382e-014 -1.90833e-014
lhumerus -27.4336 12.4915 84.8365
lradius 23.5029
lwrist -19.2222
lhand -7.32336 11.9486
lfingers 7.12502
lthumb 18.5598 41.0832
rfemur 0 0 0
rtibia 0
rfoot 0 0
rtoes 0
lfemur -12.7762 -25.9899 -12.7335
ltibia 16.6769
lfoot -8.12861 28.5866
ltoes -7.84259
2593
root 0.303655 18.2895 1.09014 11.6055 -1.69231 -3.089
lowerback -7.24059 -0.324343 3.13915
upperback -4.08113 -0.644614 3.05642
thorax -0.155443 -0.342862 1.34159
lowerneck -8.92212 -0.0568439 2.69307
upperneck 10.441 0.0100752 -3.85824
head 4.58922 -0.124424 -1.62981
rclavicle -5.60247e-015 7.15625e-015
rhumerus -32.6364 -21.047 -72.6854
rradius 31.6829
rwrist 33.9525
rhand -14.4263 16.8057
rfingers 7.12502
rthumb 11.718 -12.8466
lclavicle -5.60247e-015 7.15625e-015
lhumerus -27.8421 15.4004 83.636
lradius 21.6174
lwrist -22.0556
lhand -7.56065 12.7394
lfingers 7.12502
lthumb 18.3315 41.8956
rfemur 0 0 0
rtibia 0
rfoot 0 0
rtoes 0
lfemur -12.7211 -26.0541 -12.9089
ltibia 16.6066
lfoot -8.05318 28.5831
ltoes -7.83161
2594
root 0.304426 18.2898 1.0911 11.562 -1.536 -3.02202
lowerback -7.19687 -0.413943 3.10773
upperback -4.06421 -0.760215 3.05763
thorax -0.161506 -0.400165 1.35264
lowerneck -8.85155 -0.0355241 2.67279
upperneck 10.3273 0.0357749 -3.8206
head 4.54343 -0.109247 -1.61222
rclavicle -5.76941e-015 2.06736e-014
rhumerus -33.4862 -23.9794 -71.0031
rradius 30.309
rwrist 34.4195
rhand -13.336 15.8383
rfingers 7.12502
rthumb 12.7693 -13.7512
lclavicle -5.76941e-015 2.06736e-014
lhumerus -28.42 18.3015 82.3086
lradius 20.0111
lwrist -24.9767
lhand -7.68704 13.6266
lfingers 7.12502
lthumb 18.2099 42.7942
rfemur 0 0 0
rtibia 0
rfoot 0 0
rtoes 0
lfemur -12.6575 -26.1429 -12.9616
ltibia 16.5142
lfoot -8.09653 28.5014
ltoes -7.57859
